<svg xmlns="http://www.w3.org/2000/svg" xmlns:xlink="http://www.w3.org/1999/xlink" width="16" height="16" viewBox="0 0 16 16">
  <defs>
    <clipPath id="clip-path">
      <rect id="Rectangle_271" data-name="Rectangle 271" width="16" height="16" transform="translate(1654 546)" fill="#516beb" stroke="#707070" stroke-width="1"/>
    </clipPath>
  </defs>
  <g id="Mask_Group_24" data-name="Mask Group 24" transform="translate(-1654 -546)" clip-path="url(#clip-path)">
    <path id="_23d1261f58c31d0cea55aaa2bc4afc58" data-name="23d1261f58c31d0cea55aaa2bc4afc58" d="M15.333,2.667A3.333,3.333,0,0,1,18.667,6v9.333a3.333,3.333,0,0,1-3.333,3.333H6a3.333,3.333,0,0,1-3.333-3.333V6A3.333,3.333,0,0,1,6,2.667Zm2,5.333H4v7.333a2,2,0,0,0,2,2h9.333a2,2,0,0,0,2-2Zm-2-4H6A2,2,0,0,0,4,6v.667H17.333V6A2,2,0,0,0,15.333,4Z" transform="translate(1651.333 543.333)" fill="#516beb"/>
  </g>
</svg>
