<svg xmlns="http://www.w3.org/2000/svg" width="16" height="14.245" viewBox="0 0 16 14.245">
  <g id="Group_275" data-name="Group 275" transform="translate(-0.25 -2.17)">
    <path id="Path_843" data-name="Path 843" d="M1.341,16.415A1.059,1.059,0,0,1,.877,16.3a1.073,1.073,0,0,1-.627-.975V8.206A6.036,6.036,0,0,1,6.286,2.17h3.928a6.036,6.036,0,1,1,0,12.072H4.508L1.991,16.187A1.1,1.1,0,0,1,1.341,16.415ZM6.3,3.321A4.889,4.889,0,0,0,1.411,8.206v6.965l2.544-1.936a.585.585,0,0,1,.358-.144h5.911a4.884,4.884,0,0,0,0-9.75Z" fill="#516beb"/>
    <path id="Path_844" data-name="Path 844" d="M16.361,12.121h-6.1a.58.58,0,0,1,0-1.161h6.1a.58.58,0,0,1,0,1.161ZM13.6,14.962H10.26a.58.58,0,1,1,0-1.161H13.6a.58.58,0,0,1,0,1.161Z" transform="translate(-5.052 -4.709)" fill="#516beb"/>
  </g>
</svg>
