<svg xmlns="http://www.w3.org/2000/svg" xmlns:xlink="http://www.w3.org/1999/xlink" width="116" height="73" viewBox="0 0 116 73">
  <defs>
    <filter id="Union_8" x="0" y="0" width="116" height="73" filterUnits="userSpaceOnUse">
      <feOffset input="SourceAlpha"/>
      <feGaussianBlur stdDeviation="3" result="blur"/>
      <feFlood flood-opacity="0.161"/>
      <feComposite operator="in" in2="blur"/>
      <feComposite in="SourceGraphic"/>
    </filter>
  </defs>
  <g transform="matrix(1, 0, 0, 1, 0, 0)" filter="url(#Union_8)">
    <path id="Union_8-2" data-name="Union 8" d="M40.658,50.561a22.8,22.8,0,0,1-7.042-10.808H6.971a.587.587,0,0,1-.08-.014v.014H6.349q-1.763-.074-2.439-2.26c-.089-.233-.153-.352-.189-.352-.071.019-.163.162-.27.433a3.419,3.419,0,0,1-.218.457A3.221,3.221,0,0,1,1.973,39.41a2.853,2.853,0,0,1-1.323.4c-.433,0-.651-.164-.651-.434s.361-.657,1.092-1.159a3.766,3.766,0,0,0,1-1.269q.919-1.567,1.626-1.567a1.015,1.015,0,0,1,.923.595,8.088,8.088,0,0,1,.459.972,5.324,5.324,0,0,0,.507.979.946.946,0,0,0,.731.472h.545a.715.715,0,0,1,.108,0H33.229a28.053,28.053,0,0,1-.888-6.662A31.253,31.253,0,0,1,34.035,21.6H9.6a.479.479,0,0,1-.081-.013V21.6H9.405q-2.086-.3-2.419-1.681a10.346,10.346,0,0,1-.339-2.428A9.9,9.9,0,0,1,6.837,15.6a27.606,27.606,0,0,1,.813-3.455Q8.3,10.1,8.814,10.1q.378,0,.378.781A7.439,7.439,0,0,1,8.948,12.5a18.862,18.862,0,0,0-.567,2.293,13.4,13.4,0,0,0-.325,2.755l.026.836q.1,1.619,1.323,1.861h.108a1.071,1.071,0,0,1,.108,0h24.9A35.51,35.51,0,0,1,44.56,6.082,24.311,24.311,0,0,1,60.789.012,20.469,20.469,0,0,1,71.681,3.441a15.131,15.131,0,0,1,4.381,4.733A26.849,26.849,0,0,1,79.43,18.715a95.927,95.927,0,0,1,.817,13.142c5.548-.662,10.746-4.526,14.266-9.072.276-.358.546-.711.807-1.092a1.482,1.482,0,0,1,2.609,1.331,101.8,101.8,0,0,1-4.335,11.3c-.246.527-.5,1.051-.771,1.568a.25.25,0,0,1-.469-.14,68.834,68.834,0,0,1,1.119-6.864l.015-.245A22.229,22.229,0,0,1,80.226,35.4v1.214c0,5.071-.01,12.015-.04,17.085a1.207,1.207,0,0,1-2.413,0c-.012-2.848-.012-8.538-.012-11.389-.014-2.091.01-4.42.021-6.843a17.4,17.4,0,0,1-8.572-2.825,19.413,19.413,0,0,1,.379,2.323c.745,7.179-2.79,14.87-9.263,18.257A16.245,16.245,0,0,1,52.823,55,19.233,19.233,0,0,1,40.658,50.561Zm-2.35-6.014a18.323,18.323,0,0,0,5.745,5.482c4.453,2.64,10.354,3.239,14.964.715a14.662,14.662,0,0,0,6.469-7.767c1.44-3.862,1.552-8.834-.528-12.463a40.861,40.861,0,0,0-4.375-6.145l-.4-.473a1.682,1.682,0,0,1,.953-2.773,1.665,1.665,0,0,1,1.586.595c1.168,1.363,2.313,2.7,3.51,3.944a23.489,23.489,0,0,0,5.876,4.629,13.5,13.5,0,0,0,5.69,1.646,97.732,97.732,0,0,0-.7-12.907,32.38,32.38,0,0,0-.9-4.725c-.945-3.414-2.621-6.745-5.481-8.885A17.254,17.254,0,0,0,65.994,3C53.216-1.18,41.274,8.716,36.6,20.246h8.29A2.171,2.171,0,0,0,46.2,19.8q.527-.418.419-2.173a.634.634,0,0,1,.163-.446.651.651,0,0,1,.433-.2.685.685,0,0,1,.462.162.629.629,0,0,1,.217.431V18.83a1.992,1.992,0,0,0,.2,1.105,1.281,1.281,0,0,0,.909.31h.19a1.846,1.846,0,0,0,1.274-.431,4.807,4.807,0,0,0,1.195-1.833c.108-.288.234-.454.378-.5a1.219,1.219,0,0,1,.325-.068.555.555,0,0,1,.408.136.638.638,0,0,1,.27.269c.149.31.257.472.338.5a.592.592,0,0,0,.176.041c.145,0,.289-.124.435-.376.414-.625.82-.941,1.219-.941q.626,0,1.193,1c.144.288.261.431.351.431s.2-.1.339-.31a2.452,2.452,0,0,0,.312-.7,2.637,2.637,0,0,0,.108-.687V16.61a.716.716,0,0,1,.189-.486.652.652,0,0,1,.514-.222.674.674,0,0,1,.448.175.82.82,0,0,1,.2.635,4.248,4.248,0,0,1-.325,1.538,2.609,2.609,0,0,1-1.056,1.378,1.449,1.449,0,0,1-.7.215,1.018,1.018,0,0,1-.46-.107,1.95,1.95,0,0,1-.9-.729,2.011,2.011,0,0,1-.216-.352l-.028-.053-.189.3a2.089,2.089,0,0,1-1.464.838,1.542,1.542,0,0,1-1.03-.431,5.882,5.882,0,0,1-1.219,1.671A2.83,2.83,0,0,1,49.3,21.6h-.3a2,2,0,0,1-1.816-.835,4.082,4.082,0,0,1-2.3.835h-8.8c-.077.217-.15.434-.221.652a28.146,28.146,0,0,0-1.5,9.456,25.7,25.7,0,0,0,1.059,6.7H39.44a1.261,1.261,0,0,0,1.274-.8,5.568,5.568,0,0,0,.3-1.984,17.651,17.651,0,0,0-.163-2.071c-.053-.488-.081-.783-.081-.893a.644.644,0,0,1,.163-.431.663.663,0,0,1,.461-.216.62.62,0,0,1,.7.621,9.2,9.2,0,0,0,.108.971,23.491,23.491,0,0,1,.137,2.726q0,3.372-2.9,3.422H35.874A22.092,22.092,0,0,0,38.308,44.547Zm9.592.289q-.415-.381,1.287-2.4A22,22,0,0,0,50.7,40.489a35,35,0,0,0,2.079-3.751.661.661,0,0,1,.393-.323.685.685,0,0,1,.5.026.651.651,0,0,1,.353.391.682.682,0,0,1-.042.526,33.48,33.48,0,0,1-2.169,3.888,19.009,19.009,0,0,1-2.06,2.564q-1.135,1.107-1.633,1.107A.316.316,0,0,1,47.9,44.836Zm5.773-3.322q0-.486,1.248-.973,2.113-.647,2.384-1.283a2.835,2.835,0,0,0,.272-.849q0-.945-1.735-2.322a.721.721,0,0,1-.271-.54.7.7,0,0,1,.163-.405.5.5,0,0,1,.325-.229,1.631,1.631,0,0,1,.218-.014.568.568,0,0,1,.378.136q2.3,1.87,2.3,3.374a2.2,2.2,0,0,1-.081.593q-.552,1.725-3.388,2.754a4.158,4.158,0,0,1-1.134.215C53.9,41.972,53.673,41.838,53.673,41.514Zm-11.617,0c0-.324.414-.649,1.246-.973q2.113-.647,2.385-1.283a2.866,2.866,0,0,0,.27-.849q0-.945-1.733-2.322a.719.719,0,0,1-.273-.54.7.7,0,0,1,.163-.405.5.5,0,0,1,.325-.229,1.669,1.669,0,0,1,.218-.014.568.568,0,0,1,.378.136q2.3,1.87,2.3,3.374a2.2,2.2,0,0,1-.081.593q-.541,1.725-3.388,2.754a4.124,4.124,0,0,1-1.134.215C42.281,41.972,42.056,41.838,42.056,41.514Zm6.416-2.069a1.081,1.081,0,0,1-.028-.269,5.885,5.885,0,0,1,.407-1.695,10.053,10.053,0,0,0,.582-2.715q.068-1.231.068-2.173l-.026-1.242-.026-1.619a.636.636,0,0,1,.189-.46.645.645,0,0,1,.461-.188.669.669,0,0,1,.488.188.624.624,0,0,1,.189.46c0,.576.01,1.123.026,1.647s.029,1.021.029,1.507q0,.975-.055,1.916A10.867,10.867,0,0,1,50.03,38.1q-.637,1.621-1.26,1.621C48.626,39.716,48.525,39.633,48.472,39.445ZM37.408,31.685q0-.539,2.058-1.781l9.426-5.372a.726.726,0,0,1,.327-.081.639.639,0,0,1,.6.324.711.711,0,0,1,.081.324.634.634,0,0,1-.325.588L40.415,30.9a7.561,7.561,0,0,1-2.629,1.027C37.532,31.928,37.408,31.847,37.408,31.685ZM.639,21.861A1.008,1.008,0,0,1,.353,21.7a.356.356,0,0,1-.242-.371q.028-.512.732-.512h.378q.733-.324,1.111-.459a4.882,4.882,0,0,1-.65-.81A2.184,2.184,0,0,1,1.357,18.3a1.813,1.813,0,0,1,.284-1.039,3.558,3.558,0,0,1,.773-.8,1.894,1.894,0,0,1,1.246-.512.624.624,0,0,1,.556.216.747.747,0,0,1,.149.417.712.712,0,0,1-.094.337.327.327,0,0,1-.313.184,1.1,1.1,0,0,1-.217-.028,1.638,1.638,0,0,0-.3-.027.411.411,0,0,0-.164.027,2.707,2.707,0,0,0-1,1.107.868.868,0,0,0-.027.216.788.788,0,0,0,.027.243,1.939,1.939,0,0,0,.731.877,2.84,2.84,0,0,0,1.057.376,7.327,7.327,0,0,0,1.166.1h.25a.43.43,0,0,1,.476.486.541.541,0,0,1-.2.486.994.994,0,0,1-.446.161H5.119A.831.831,0,0,1,4.9,21.1a1.936,1.936,0,0,0-.461-.053,4.045,4.045,0,0,0-.786.081,5.4,5.4,0,0,0-1.544.486,1.386,1.386,0,0,1-.379.134,1.619,1.619,0,0,1-.567.162l-.089,0A1.769,1.769,0,0,1,.639,21.861ZM47.091,13.82a.787.787,0,0,1-.785-.783.705.705,0,0,1,.231-.538.776.776,0,0,1,.554-.217.745.745,0,0,1,.529.217.711.711,0,0,1,.231.538.752.752,0,0,1-.231.554.718.718,0,0,1-.525.23Z" transform="translate(9 9)" fill="#fff"/>
  </g>
</svg>
