<svg xmlns="http://www.w3.org/2000/svg" width="82" height="46" viewBox="0 0 82 46">
  <path id="Union_4" data-name="Union 4" d="M34.019,42.287a19.068,19.068,0,0,1-5.892-9.04H5.833a.427.427,0,0,1-.067-.011v.011H5.313q-1.476-.062-2.04-1.89c-.075-.2-.128-.294-.158-.294-.06.016-.136.136-.226.363a3.033,3.033,0,0,1-.182.382,2.7,2.7,0,0,1-1.055,1.153A2.4,2.4,0,0,1,.544,33.3C.182,33.3,0,33.163,0,32.937s.3-.549.914-.969a3.162,3.162,0,0,0,.84-1.062Q2.522,29.6,3.114,29.6a.847.847,0,0,1,.772.5,6.833,6.833,0,0,1,.384.813,4.386,4.386,0,0,0,.424.819.79.79,0,0,0,.612.4h.455a.75.75,0,0,1,.09,0H27.8a23.459,23.459,0,0,1-.743-5.571,26.129,26.129,0,0,1,1.418-8.485H8.028a.585.585,0,0,1-.067-.011v.009h-.09q-1.747-.247-2.025-1.406a8.656,8.656,0,0,1-.283-2.031A8.257,8.257,0,0,1,5.72,13.05a23.069,23.069,0,0,1,.68-2.89q.544-1.714.975-1.714.316,0,.316.653a6.232,6.232,0,0,1-.2,1.356,15.788,15.788,0,0,0-.474,1.918,11.205,11.205,0,0,0-.272,2.3l.022.7q.088,1.354,1.108,1.558h.09a.75.75,0,0,1,.09,0H28.888a29.69,29.69,0,0,1,8.4-11.846A20.342,20.342,0,0,1,50.864.01a17.144,17.144,0,0,1,9.115,2.867,12.661,12.661,0,0,1,3.667,3.959,22.469,22.469,0,0,1,2.816,8.816,80.242,80.242,0,0,1,.684,10.992c4.641-.553,8.991-3.785,11.936-7.588.231-.3.457-.595.676-.913a1.24,1.24,0,0,1,2.183,1.113,84.958,84.958,0,0,1-3.627,9.454c-.205.441-.416.879-.645,1.312a.209.209,0,0,1-.392-.118,57.788,57.788,0,0,1,.937-5.741l.013-.2a18.6,18.6,0,0,1-11.1,5.648v1.015c0,4.242-.008,10.049-.033,14.289a1.01,1.01,0,0,1-2.02,0c-.009-2.381-.009-7.141-.009-9.527-.012-1.749.007-3.7.017-5.723A14.547,14.547,0,0,1,57.91,27.3a16.126,16.126,0,0,1,.317,1.943c.623,6-2.335,12.437-7.75,15.269A13.6,13.6,0,0,1,44.2,46,16.1,16.1,0,0,1,34.019,42.287Zm-1.966-5.03a15.3,15.3,0,0,0,4.807,4.585c3.726,2.208,8.663,2.709,12.522.6a12.267,12.267,0,0,0,5.412-6.5c1.205-3.23,1.3-7.389-.441-10.424a34.232,34.232,0,0,0-3.661-5.14l-.331-.4a1.412,1.412,0,0,1-.279-1.4,1.394,1.394,0,0,1,2.4-.427c.977,1.14,1.936,2.259,2.937,3.3a19.655,19.655,0,0,0,4.918,3.871,11.286,11.286,0,0,0,4.76,1.376,81.62,81.62,0,0,0-.587-10.794,27.048,27.048,0,0,0-.752-3.953,13.582,13.582,0,0,0-4.587-7.43A14.42,14.42,0,0,0,55.22,2.512c-10.692-3.5-20.684,4.779-24.6,14.422h6.936a1.818,1.818,0,0,0,1.1-.372q.441-.35.352-1.817a.523.523,0,0,1,.136-.373.542.542,0,0,1,.362-.168.569.569,0,0,1,.386.135.527.527,0,0,1,.182.361v1.05a1.668,1.668,0,0,0,.169.924,1.072,1.072,0,0,0,.761.26h.158a1.554,1.554,0,0,0,1.067-.361,4.022,4.022,0,0,0,1-1.534c.09-.241.2-.38.317-.418a1,1,0,0,1,.272-.057.467.467,0,0,1,.342.113.534.534,0,0,1,.226.225c.125.26.215.4.283.418a.5.5,0,0,0,.148.034c.121,0,.242-.1.364-.315.347-.522.687-.787,1.021-.787s.681.278,1,.836q.181.36.294.36t.284-.259a2.073,2.073,0,0,0,.261-.588,2.216,2.216,0,0,0,.09-.575v-.135a.6.6,0,0,1,.158-.406.54.54,0,0,1,.43-.186.561.561,0,0,1,.374.147.681.681,0,0,1,.169.53,3.556,3.556,0,0,1-.272,1.287,2.185,2.185,0,0,1-.884,1.153,1.224,1.224,0,0,1-.59.179.84.84,0,0,1-.384-.09,1.947,1.947,0,0,1-.93-.9l-.024-.044-.157.248a1.746,1.746,0,0,1-1.224.7,1.284,1.284,0,0,1-.862-.36,4.925,4.925,0,0,1-1.021,1.4,2.367,2.367,0,0,1-1.656.52H41a1.672,1.672,0,0,1-1.519-.7,3.423,3.423,0,0,1-1.927.7H30.194c-.064.181-.126.363-.185.545a23.506,23.506,0,0,0-1.253,7.909,21.5,21.5,0,0,0,.886,5.6H33a1.054,1.054,0,0,0,1.066-.666,4.665,4.665,0,0,0,.248-1.66,14.685,14.685,0,0,0-.136-1.733c-.045-.408-.068-.654-.068-.746a.537.537,0,0,1,.136-.36.558.558,0,0,1,.386-.182.521.521,0,0,1,.59.52,7.694,7.694,0,0,0,.09.812,19.51,19.51,0,0,1,.115,2.281q0,2.82-2.428,2.861H30.017A18.465,18.465,0,0,0,32.054,37.257Zm8.026.242q-.347-.319,1.077-2.009a18.388,18.388,0,0,0,1.264-1.627,29.2,29.2,0,0,0,1.741-3.136.553.553,0,0,1,.328-.271.577.577,0,0,1,.419.022.545.545,0,0,1,.3.328.567.567,0,0,1-.034.44A28.021,28.021,0,0,1,43.357,34.5a15.854,15.854,0,0,1-1.724,2.145q-.949.925-1.366.926A.264.264,0,0,1,40.08,37.5Zm4.83-2.778q0-.406,1.044-.814,1.768-.54,1.994-1.073a2.349,2.349,0,0,0,.228-.71q0-.79-1.452-1.941a.6.6,0,0,1-.226-.452.572.572,0,0,1,.136-.338.413.413,0,0,1,.272-.193,1.424,1.424,0,0,1,.182-.011.475.475,0,0,1,.316.113q1.924,1.563,1.925,2.821a1.846,1.846,0,0,1-.068.5q-.462,1.444-2.835,2.3a3.441,3.441,0,0,1-.949.179C45.1,35.1,44.91,34.992,44.91,34.721Zm-9.72,0c0-.271.346-.543,1.042-.814q1.767-.54,2-1.073a2.373,2.373,0,0,0,.227-.71q0-.79-1.451-1.941a.6.6,0,0,1-.228-.452.584.584,0,0,1,.136-.338.417.417,0,0,1,.273-.193,1.448,1.448,0,0,1,.182-.011.478.478,0,0,1,.316.113q1.926,1.563,1.925,2.821a1.847,1.847,0,0,1-.068.5q-.452,1.444-2.834,2.3a3.408,3.408,0,0,1-.949.179C35.378,35.1,35.19,34.992,35.19,34.721Zm5.368-1.731a.9.9,0,0,1-.024-.225,4.928,4.928,0,0,1,.34-1.417,8.39,8.39,0,0,0,.488-2.271q.057-1.029.057-1.817L41.4,26.222l-.022-1.354a.532.532,0,0,1,.158-.384.543.543,0,0,1,.386-.157.564.564,0,0,1,.409.157.523.523,0,0,1,.158.384c0,.482.008.94.022,1.378s.023.853.023,1.26q0,.815-.046,1.6a9.09,9.09,0,0,1-.623,2.754q-.533,1.355-1.055,1.355C40.686,33.217,40.6,33.148,40.559,32.99ZM31.3,26.5q0-.45,1.723-1.49l7.888-4.493a.612.612,0,0,1,.274-.067.533.533,0,0,1,.5.271.593.593,0,0,1,.068.271.532.532,0,0,1-.273.491l-7.661,4.361a6.311,6.311,0,0,1-2.2.859C31.4,26.7,31.3,26.635,31.3,26.5ZM.535,18.284A.833.833,0,0,1,.3,18.149a.3.3,0,0,1-.2-.31q.023-.428.612-.428h.316q.614-.27.931-.384a4.024,4.024,0,0,1-.544-.677,1.823,1.823,0,0,1-.272-1.04,1.519,1.519,0,0,1,.237-.868,2.97,2.97,0,0,1,.647-.666,1.583,1.583,0,0,1,1.042-.428.522.522,0,0,1,.465.181.633.633,0,0,1,.125.347.6.6,0,0,1-.079.283.275.275,0,0,1-.261.154.949.949,0,0,1-.182-.023,1.357,1.357,0,0,0-.248-.023.344.344,0,0,0-.138.023,2.273,2.273,0,0,0-.838.926.717.717,0,0,0-.023.181.676.676,0,0,0,.023.2,1.621,1.621,0,0,0,.612.733,2.361,2.361,0,0,0,.884.315,6.221,6.221,0,0,0,.976.08h.209a.361.361,0,0,1,.3.106.356.356,0,0,1,.1.3.45.45,0,0,1-.171.407.829.829,0,0,1-.373.135H4.283a.711.711,0,0,1-.18-.023,1.645,1.645,0,0,0-.386-.044,3.358,3.358,0,0,0-.658.067,4.523,4.523,0,0,0-1.292.407,1.155,1.155,0,0,1-.317.112,1.336,1.336,0,0,1-.474.135l-.078,0A1.464,1.464,0,0,1,.535,18.284ZM38.746,10.9a.589.589,0,0,1,.194-.451.651.651,0,0,1,.464-.181.627.627,0,0,1,.443.181.6.6,0,0,1,.193.451.627.627,0,0,1-.193.463.6.6,0,0,1-.443.193A.659.659,0,0,1,38.746,10.9Z" transform="translate(0 0)" fill="#516beb"/>
</svg>
