<svg id="Layer_1" data-name="Layer 1" xmlns="http://www.w3.org/2000/svg" viewBox="0 0 2240.3 853.11"><defs><style>.cls-1{fill:#47c1f5;}.cls-2{fill:#02729f;}</style></defs><polygon class="cls-1" points="411.05 793.94 216.14 631.09 216.14 251.63 238.95 251.63 238.95 620.42 411.36 764.47 591.84 619.94 591.84 251.91 614.65 251.91 614.65 630.89 411.05 793.94"/><circle class="cls-2" cx="227.62" cy="262.13" r="29.45"/><circle class="cls-2" cx="414.55" cy="771.32" r="29.45"/><circle class="cls-2" cx="604.35" cy="262.13" r="29.45"/><circle class="cls-2" cx="227.62" cy="618.51" r="29.45"/><circle class="cls-2" cx="604.35" cy="618.51" r="29.45"/><polygon class="cls-1" points="634.79 839.66 616.86 821.3 792 650.34 585.33 444.86 801.81 221.57 820.24 239.43 621.4 444.53 828.57 650.51 634.79 839.66"/><circle class="cls-2" cx="808.97" cy="234.57" r="29.45"/><circle class="cls-2" cx="609.94" cy="443.77" r="29.45"/><circle class="cls-2" cx="804.94" cy="648.95" r="29.45"/><circle class="cls-2" cx="630.23" cy="823.66" r="29.45"/><polygon class="cls-1" points="54.3 634.54 36.37 616.18 211.51 445.22 4.84 239.74 221.32 16.45 239.75 34.31 40.91 239.41 248.09 445.39 54.3 634.54"/><circle class="cls-2" cx="228.48" cy="29.45" r="29.45"/><circle class="cls-2" cx="29.45" cy="238.65" r="29.45"/><circle class="cls-2" cx="224.46" cy="443.83" r="29.45"/><circle class="cls-2" cx="49.74" cy="618.54" r="29.45"/><path class="cls-2" d="M1042.74,228.45c12,6.13,30.39,12.27,49.39,12.27,20.45,0,31.27-8.47,31.27-21.33,0-12.28-9.36-19.29-33-27.76-32.73-11.4-54.06-29.52-54.06-58.16,0-33.61,28-59.32,74.52-59.32,22.21,0,38.57,4.67,50.26,9.93l-9.93,36a93.64,93.64,0,0,0-41.21-9.35c-19.29,0-28.64,8.76-28.64,19,0,12.57,11.11,18.12,36.53,27.76,34.78,12.86,51.14,31,51.14,58.74,0,33-25.42,61.08-79.48,61.08-22.51,0-44.72-5.84-55.82-12Z"/><path class="cls-2" d="M1197.62,177c0-17.82-.59-33-1.17-45.58h37.41l2,19.28h.88c6.14-9.06,18.7-22.5,43.25-22.5,18.41,0,33,9.35,39.16,24.26h.58a64.07,64.07,0,0,1,18.41-17.25c7.89-4.67,16.66-7,27.18-7,27.47,0,48.22,19.29,48.22,62v84.16h-43.25V196.59c0-20.74-6.72-32.73-21-32.73-10.23,0-17.53,7-20.46,15.49a37.16,37.16,0,0,0-1.75,11.4v83.58h-43.25V194.26c0-18.12-6.43-30.4-20.46-30.4-11.39,0-18.12,8.77-20.75,16.08a29.45,29.45,0,0,0-1.75,11.1v83.29h-43.25Z"/><path class="cls-2" d="M1530.18,274.33,1527.55,260h-.88c-9.35,11.4-24,17.53-40.91,17.53-28.93,0-46.18-21-46.18-43.83,0-37.12,33.32-54.94,83.88-54.65V177c0-7.59-4.09-18.41-26-18.41-14.61,0-30.1,5-39.45,10.82l-8.19-28.64c9.94-5.56,29.52-12.57,55.53-12.57,47.63,0,62.83,28.06,62.83,61.66v49.68c0,13.74.58,26.89,2,34.78Zm-5.26-67.51c-23.38-.29-41.5,5.26-41.5,22.5,0,11.4,7.6,17,17.53,17A24.26,24.26,0,0,0,1524,229.91a31.6,31.6,0,0,0,.88-7.6Z"/><path class="cls-2" d="M1603.23,178.48c0-21-.58-34.78-1.17-47h38.29l1.46,26.3H1643c7.3-20.75,24.84-29.52,38.57-29.52a45.33,45.33,0,0,1,9.35.59v41.78a64.07,64.07,0,0,0-12-1.16c-16.36,0-27.47,8.76-30.39,22.5a52.71,52.71,0,0,0-.88,9.93v72.48h-44.42Z"/><path class="cls-2" d="M1770.1,90.51v40.92H1802v32.73H1770.1v51.72c0,17.24,4.09,25.13,17.53,25.13a73.06,73.06,0,0,0,13.15-1.16l.29,33.6c-5.84,2.34-16.36,3.8-28.93,3.8-14.32,0-26.3-5-33.31-12.27-8.18-8.48-12.27-22.21-12.27-42.38V164.16h-19V131.43h19v-31Z"/><path class="cls-1" d="M1069.62,327.46v116.6c0,44.13,19.58,62.83,45.88,62.83,29.23,0,47.93-19.28,47.93-62.83V327.46h25.72V442.31c0,60.49-31.86,85.33-74.52,85.33-40.33,0-70.72-23.08-70.72-84.16v-116Z"/><path class="cls-1" d="M1232.39,421.27c0-14.61-.29-26.59-1.16-38.28H1254l1.46,23.38h.59c7-13.45,23.37-26.6,46.75-26.6,19.58,0,50,11.69,50,60.2v84.46h-25.72V442.89c0-22.79-8.48-41.78-32.73-41.78-16.95,0-30.1,12-34.48,26.3a36.88,36.88,0,0,0-1.76,12v85h-25.72Z"/><path class="cls-1" d="M1423.22,343.24c.29,8.77-6.14,15.78-16.36,15.78-9.06,0-15.49-7-15.49-15.78a15.67,15.67,0,0,1,16.07-16.07C1417.08,327.17,1423.22,334.18,1423.22,343.24Zm-28.64,181.19V383h25.72V524.43Z"/><path class="cls-1" d="M1472.9,383l27.76,79.48a362.19,362.19,0,0,1,11.4,36.24h.88c3.21-11.69,7.3-23.38,12-36.24L1552.39,383h26.88l-55.52,141.44H1499.2L1445.43,383Z"/><path class="cls-1" d="M1614.92,458.38c.59,34.78,22.8,49.1,48.51,49.1,18.42,0,29.52-3.22,39.16-7.31l4.39,18.41c-9.06,4.09-24.55,8.77-47,8.77-43.55,0-69.55-28.64-69.55-71.31s25.13-76.27,66.33-76.27c46.18,0,58.45,40.62,58.45,66.63a95.31,95.31,0,0,1-.88,12Zm75.4-18.41c.29-16.36-6.72-41.79-35.65-41.79-26,0-37.41,24-39.45,41.79Z"/><path class="cls-1" d="M1747,427.11c0-16.65-.29-31-1.17-44.12h22.5l.88,27.76h1.17c6.43-19,21.92-31,39.16-31a27.63,27.63,0,0,1,7.31.88V404.9a39,39,0,0,0-8.77-.87c-18.12,0-31,13.73-34.49,33a73,73,0,0,0-1.16,12v75.4H1747Z"/><path class="cls-1" d="M1839.06,498.13c7.6,5,21,10.23,33.9,10.23,18.71,0,27.47-9.36,27.47-21.05,0-12.27-7.3-19-26.3-26-25.42-9.06-37.4-23.09-37.4-40,0-22.8,18.41-41.5,48.8-41.5,14.32,0,26.88,4.09,34.78,8.77l-6.43,18.7a55.14,55.14,0,0,0-28.94-8.18c-15.19,0-23.67,8.77-23.67,19.29,0,11.69,8.48,16.95,26.89,24,24.55,9.35,37.11,21.63,37.11,42.67,0,24.84-19.28,42.37-52.89,42.37-15.49,0-29.81-3.8-39.75-9.64Z"/><path class="cls-1" d="M1986.93,343.24c.29,8.77-6.13,15.78-16.36,15.78-9.06,0-15.49-7-15.49-15.78a15.67,15.67,0,0,1,16.07-16.07C1980.8,327.17,1986.93,334.18,1986.93,343.24Zm-28.64,181.19V383H1984V524.43Z"/><path class="cls-1" d="M2057.65,342.37V383h36.82v19.58h-36.82v76.27c0,17.53,5,27.47,19.29,27.47a57.48,57.48,0,0,0,14.9-1.75l1.17,19.28c-5,2-12.86,3.51-22.79,3.51-12,0-21.63-3.8-27.76-10.81-7.31-7.6-9.94-20.17-9.94-36.82V402.57H2010.6V383h21.92v-33.9Z"/><path class="cls-1" d="M2135.38,383l31,83.58c3.21,9.35,6.72,20.45,9.06,28.93h.58c2.63-8.48,5.56-19.29,9.06-29.52l28.06-83h27.18l-38.58,100.82c-18.41,48.51-31,73.35-48.51,88.55-12.57,11.1-25.13,15.48-31.56,16.65l-6.43-21.62a68.11,68.11,0,0,0,22.5-12.57c7-5.55,15.78-15.49,21.63-28.64,1.17-2.63,2-4.67,2-6.14s-.58-3.5-1.75-6.72L2107.33,383Z"/><path class="cls-1" d="M1040.69,743.55a90.16,90.16,0,0,0,45.59,12.86c26,0,41.21-13.74,41.21-33.61,0-18.41-10.52-28.93-37.12-39.16-32.14-11.39-52-28-52-55.81,0-30.69,25.43-53.48,63.71-53.48,20.17,0,34.78,4.67,43.55,9.64l-7,20.75a78.41,78.41,0,0,0-37.4-9.35c-26.89,0-37.12,16.07-37.12,29.51,0,18.41,12,27.47,39.16,38,33.32,12.86,50.26,28.94,50.26,57.87,0,30.39-22.5,56.69-69,56.69-19,0-39.75-5.55-50.27-12.57Z"/><path class="cls-1" d="M1194.41,633.09l31,83.58c3.22,9.35,6.72,20.45,9.06,28.93h.59c2.63-8.48,5.55-19.29,9.06-29.52l28.05-83h27.18l-38.58,100.82c-18.41,48.51-31,73.35-48.51,88.55-12.56,11.1-25.13,15.48-31.56,16.65l-6.43-21.62a68,68,0,0,0,22.5-12.57c7-5.55,15.78-15.49,21.63-28.64,1.17-2.63,2-4.67,2-6.14s-.58-3.5-1.75-6.72l-52.31-130.33Z"/><path class="cls-1" d="M1317.43,748.23c7.6,5,21,10.23,33.9,10.23,18.71,0,27.47-9.36,27.47-21.05,0-12.27-7.3-19-26.3-26-25.42-9.06-37.4-23.09-37.4-40,0-22.8,18.41-41.5,48.8-41.5,14.32,0,26.88,4.09,34.78,8.77l-6.43,18.7a55,55,0,0,0-28.93-8.18c-15.2,0-23.68,8.77-23.68,19.29,0,11.69,8.48,16.95,26.89,24,24.55,9.35,37.11,21.63,37.11,42.67,0,24.84-19.28,42.37-52.89,42.37-15.49,0-29.81-3.8-39.75-9.64Z"/><path class="cls-1" d="M1467.64,592.46v40.63h36.82v19.58h-36.82v76.27c0,17.53,5,27.47,19.29,27.47a57.48,57.48,0,0,0,14.9-1.75l1.17,19.28c-5,2-12.86,3.51-22.79,3.51-12,0-21.63-3.8-27.77-10.81-7.3-7.6-9.93-20.17-9.93-36.82V652.67h-21.92V633.09h21.92v-33.9Z"/><path class="cls-1" d="M1546,708.48c.58,34.78,22.79,49.1,48.51,49.1,18.41,0,29.51-3.22,39.16-7.31l4.38,18.41c-9.06,4.09-24.55,8.77-47,8.77-43.54,0-69.55-28.64-69.55-71.31s25.13-76.27,66.34-76.27c46.17,0,58.44,40.62,58.44,66.63a97.7,97.7,0,0,1-.87,12Zm75.39-18.41c.3-16.36-6.72-41.79-35.65-41.79-26,0-37.4,24-39.45,41.79Z"/><path class="cls-1" d="M1678,671.37c0-14.61-.29-26.59-1.16-38.28h22.5l1.17,22.79h.87c7.89-13.44,21-26,44.42-26,19.29,0,33.9,11.69,40,28.35h.58a58.37,58.37,0,0,1,15.78-18.41c8.48-6.43,17.83-9.94,31.27-9.94,18.71,0,46.47,12.28,46.47,61.37v83.29h-25.13V694.46c0-27.18-9.94-43.55-30.69-43.55-14.61,0-26,10.81-30.39,23.38a42.33,42.33,0,0,0-2,12.86v87.38h-25.14V689.78c0-22.5-9.93-38.87-29.51-38.87-16.08,0-27.77,12.86-31.86,25.72a35.47,35.47,0,0,0-2,12.57v85.33H1678Z"/></svg>