<svg id="c" xmlns="http://www.w3.org/2000/svg" width="113" height="86" viewBox="0 0 113 86">
  <g id="Group_25" data-name="Group 25">
    <g id="Group_23" data-name="Group 23" transform="translate(0 41.648)">
      <path id="Path_459" data-name="Path 459" d="M105.069,304.626q-1.156,1.643-2.381,3.233c-8.3,10.76-19.737,20.223-32.341,24.619-.045.017-.09.033-.134.051A40.853,40.853,0,0,1,53.292,335v.023A38.04,38.04,0,0,1,46.429,334c-.134-.033-.269-.062-.4-.1-.167-.045-.33-.084-.487-.124-.229-.056-.459-.119-.687-.186-.206-.056-.4-.113-.6-.169-.828-.253-1.655-.535-2.487-.84l-.084-.033c-.118-.045-.179-.074-.179-.074a41.508,41.508,0,0,1-5.064-2.336c-6.589-3.5-12.1-8.272-17.373-13.756-3.537-3.69-6.925-7.668-10.38-11.714a4.925,4.925,0,0,0-6.97-.54,4.988,4.988,0,0,0-.537,7.007c.09.107.179.208.269.317.045.056.1.113.14.169.257.311.52.626.783.936q.9,1.075,1.784,2.167c11.066,13.125,19.5,19.624,23.784,22.452a.019.019,0,0,1-.006-.017Q29.465,338.133,31,339a.684.684,0,0,0,.078.039,52.325,52.325,0,0,0,13.768,5.343q2,.457,4.008.745c.42.062.86.119,1.331.169.313.033.638.068.967.1.167.017.336.033.508.045.28.023.559.045.839.062.263.016.532.033.8.045v.006a50.128,50.128,0,0,0,7.238-.1v-.074A52.676,52.676,0,0,0,69.5,343.7c11.012-3.036,21.387-9.547,30.24-18.372-.045.208-.09.424-.134.638A203.987,203.987,0,0,0,96.3,346.347a.739.739,0,0,0,1.387.418c.811-1.54,1.554-3.1,2.281-4.661a305.211,305.211,0,0,0,12.817-33.551,4.409,4.409,0,0,0-2.188-5.275,4.362,4.362,0,0,0-5.525,1.348Z" transform="translate(0.004 -302.803)" fill="#fff"/>
    </g>
    <g id="Group_24" data-name="Group 24" transform="translate(32.382)">
      <path id="Line_9" data-name="Line 9" d="M-29.722,6.964A5.278,5.278,0,0,1-35,1.686v-17.95a5.278,5.278,0,0,1,5.278-5.278,5.278,5.278,0,0,1,5.278,5.278V1.686a5.278,5.278,0,0,1-5.278,5.278Z" transform="translate(35 21.542)" fill="#fff"/>
      <path id="Line_9-2" data-name="Line 9" d="M-29.722,6.964A5.278,5.278,0,0,1-35,1.686v-17.95a5.278,5.278,0,0,1,5.278-5.278,5.278,5.278,0,0,1,5.278,5.278V1.686a5.278,5.278,0,0,1-5.278,5.278Z" transform="translate(76.757 21.542)" fill="#fff"/>
    </g>
  </g>
</svg>
