<svg xmlns="http://www.w3.org/2000/svg" width="55" height="55" viewBox="0 0 55 55">
  <path id="Exclusion_1" data-name="Exclusion 1" d="M-4349.5,55a27.328,27.328,0,0,1-10.7-2.161,27.4,27.4,0,0,1-8.741-5.893,27.4,27.4,0,0,1-5.894-8.741A27.324,27.324,0,0,1-4377,27.5a27.327,27.327,0,0,1,2.161-10.7,27.405,27.405,0,0,1,5.894-8.741,27.4,27.4,0,0,1,8.741-5.893A27.328,27.328,0,0,1-4349.5,0a27.327,27.327,0,0,1,10.7,2.161,27.4,27.4,0,0,1,8.741,5.893,27.405,27.405,0,0,1,5.894,8.741A27.327,27.327,0,0,1-4322,27.5a27.324,27.324,0,0,1-2.161,10.7,27.4,27.4,0,0,1-5.894,8.741,27.4,27.4,0,0,1-8.741,5.893A27.327,27.327,0,0,1-4349.5,55Zm-9.866-29.065a1.425,1.425,0,0,0-.977.387,1.415,1.415,0,0,0-.45.995,1.418,1.418,0,0,0,.386,1.022l6.928,7.37a1.428,1.428,0,0,0,1.039.456h.016a1.427,1.427,0,0,0,1.04-.47l13.028-14.254a1.422,1.422,0,0,0,.367-1.428,1.419,1.419,0,0,0-1.092-.989,1.42,1.42,0,0,0-.274-.027,1.42,1.42,0,0,0-1.111.532l-11.988,13.114-5.873-6.257A1.41,1.41,0,0,0-4359.366,25.935Z" transform="translate(4377)" fill="#34b5ac"/>
</svg>
