<svg xmlns="http://www.w3.org/2000/svg" width="70.02" height="61.267" viewBox="0 0 70.02 61.267">
  <g id="Group_75" data-name="Group 75" transform="translate(0 -4.16)">
    <path id="Path_1169" data-name="Path 1169" d="M67.831,53.29H2.188A2.2,2.2,0,0,1,0,51.091V6.359a2.2,2.2,0,0,1,2.188-2.2H67.831a2.2,2.2,0,0,1,2.188,2.2V51.091A2.193,2.193,0,0,1,67.831,53.29Z" transform="translate(0 0)" fill="#34b5ac"/>
    <path id="Path_1170" data-name="Path 1170" d="M63.286,16.16V40.313a6.386,6.386,0,0,0-6.356,6.41H11.936a6.379,6.379,0,0,0-6.356-6.41V16.16a6.386,6.386,0,0,0,6.356-6.41H56.93A6.379,6.379,0,0,0,63.286,16.16Z" transform="translate(0.577 0.578)" fill="#f2f2f2"/>
    <rect id="Rectangle_1267" data-name="Rectangle 1267" width="18.249" height="5.539" transform="translate(26.06 15.677)" fill="#2b2a2a"/>
    <rect id="Rectangle_1268" data-name="Rectangle 1268" width="39.071" height="3.454" transform="translate(15.48 25.481)" fill="#34b5ac"/>
    <rect id="Rectangle_1269" data-name="Rectangle 1269" width="39.071" height="3.454" transform="translate(15.48 31.917)" fill="#34b5ac"/>
    <rect id="Rectangle_1270" data-name="Rectangle 1270" width="39.071" height="3.454" transform="translate(15.48 38.364)" fill="#34b5ac"/>
    <g id="Group_74" data-name="Group 74" transform="translate(41.388 36.707)">
      <path id="Path_1171" data-name="Path 1171" d="M53.561,49.09l5.064,8.761-2.273-.408-.651-.121-1.059-.2-.364,1.015-.232.64-.772,2.174L48.21,52.179Z" transform="translate(-37 -32.231)" fill="#474747"/>
      <path id="Path_1172" data-name="Path 1172" d="M51.9,49.89l4.314,7.47-1.71-.32-.6,1.655L49.59,51.214Z" transform="translate(-36.857 -32.148)" fill="#2b2a2a"/>
      <path id="Path_1173" data-name="Path 1173" d="M43.594,49.09,38.53,57.851l2.273-.408.651-.121,1.059-.2.364,1.015.232.64.772,2.174,5.064-8.772Z" transform="translate(-38 -32.231)" fill="#474747"/>
      <path id="Path_1174" data-name="Path 1174" d="M44.9,49.89,40.59,57.36l1.71-.32.6,1.655,4.314-7.481Z" transform="translate(-37.787 -32.148)" fill="#2b2a2a"/>
      <g id="Group_72" data-name="Group 72">
        <path id="Path_1175" data-name="Path 1175" d="M60.183,44.877c0,1.379-1.964,2.361-2.46,3.564-.519,1.247.154,3.321-.783,4.259s-3.012.265-4.259.783c-1.2.5-2.185,2.46-3.564,2.46s-2.361-1.964-3.564-2.46c-1.247-.519-3.321.154-4.259-.783s-.265-3.012-.783-4.259c-.5-1.2-2.46-2.185-2.46-3.564s1.964-2.361,2.46-3.564c.519-1.247-.154-3.321.783-4.259s3.012-.265,4.259-.783c1.2-.5,2.185-2.46,3.564-2.46s2.361,1.964,3.564,2.46c1.247.519,3.321-.154,4.259.783s.265,3.012.783,4.259C58.219,42.515,60.183,43.5,60.183,44.877Z" transform="translate(-38.05 -33.81)" fill="#f4c95a"/>
        <path id="Path_1176" data-name="Path 1176" d="M57.37,44.635c0,1.059-1.5,1.81-1.887,2.736-.4.96.121,2.549-.6,3.266s-2.306.2-3.266.6c-.916.386-1.677,1.887-2.736,1.887s-1.81-1.5-2.736-1.887c-.96-.4-2.549.121-3.266-.6s-.2-2.306-.6-3.266c-.386-.916-1.887-1.677-1.887-2.736s1.5-1.81,1.887-2.736c.4-.949-.121-2.549.6-3.266s2.306-.2,3.266-.6c.916-.386,1.677-1.887,2.736-1.887s1.81,1.5,2.736,1.887c.949.4,2.549-.121,3.266.6s.2,2.306.6,3.266C55.858,42.814,57.37,43.576,57.37,44.635Z" transform="translate(-37.807 -33.568)" fill="#e2a144"/>
        <path id="Path_1177" data-name="Path 1177" d="M56.633,44.572c0,.971-1.39,1.666-1.732,2.516-.364.883.11,2.35-.552,3.012s-2.129.188-3.012.552c-.85.353-1.545,1.732-2.516,1.732s-1.666-1.39-2.516-1.732c-.883-.364-2.35.11-3.012-.552s-.188-2.129-.552-3.012c-.353-.85-1.732-1.545-1.732-2.516s1.39-1.666,1.732-2.516c.364-.883-.11-2.35.552-3.012s2.129-.188,3.012-.552c.85-.353,1.545-1.732,2.516-1.732s1.666,1.39,2.516,1.732c.883.364,2.35-.11,3.012.552s.188,2.129.552,3.012C55.254,42.895,56.633,43.59,56.633,44.572Z" transform="translate(-37.744 -33.505)" fill="#edaf4b"/>
      </g>
      <g id="Group_73" data-name="Group 73" transform="translate(5.663 6.858)">
        <path id="Path_1179" data-name="Path 1179" d="M8,13.414a.648.648,0,0,1-.476-.212L4.358,9.78a.67.67,0,0,1,.029-.937.646.646,0,0,1,.923.03L8,11.779l5.485-6.09a.647.647,0,0,1,.633-.235.656.656,0,0,1,.5.459.669.669,0,0,1-.168.663L8.487,13.2a.648.648,0,0,1-.476.218Z" transform="translate(-4.182 -5.442)" fill="#fff"/>
      </g>
    </g>
  </g>
</svg>
