<svg xmlns="http://www.w3.org/2000/svg" width="18" height="20" viewBox="0 0 18 20">
  <path id="Path_1191" data-name="Path 1191" d="M2.439,19.721l4.288-5.1,4.288,5.1a.815.815,0,0,0,.9.227.84.84,0,0,0,.539-.769V12.508h5.727A.826.826,0,0,0,19,11.674v-7.5A4.136,4.136,0,0,0,14.909,0H5.091A4.136,4.136,0,0,0,1,4.169v15.01a.841.841,0,0,0,.54.767A.816.816,0,0,0,2.439,19.721ZM17.364,4.169V10.84H12.455V4.169a2.455,2.455,0,1,1,4.909,0Zm-14.727,0a2.478,2.478,0,0,1,2.455-2.5h6.567a4.177,4.177,0,0,0-.839,2.5V16.928L7.348,12.8a.833.833,0,0,0-1.242,0l-3.47,4.128Z" transform="translate(-1)" fill="#34b5ac"/>
</svg>
