<svg xmlns="http://www.w3.org/2000/svg" xmlns:xlink="http://www.w3.org/1999/xlink" width="250" height="31" viewBox="0 0 250 31">
  <defs>
    <clipPath id="clip-path">
      <rect id="Rectangle_246" data-name="Rectangle 246" width="250" height="31" transform="translate(1243 867)" fill="red" opacity="0.46"/>
    </clipPath>
  </defs>
  <g id="Mask_Group_26" data-name="Mask Group 26" transform="translate(-1243 -867)" clip-path="url(#clip-path)">
    <path id="Union_3" data-name="Union 3" d="M-3962.634,55h-.312l-.134,0h-.178c-.04,0-.079,0-.119,0h-.014l-.137,0h-.026l-.112,0-.033,0a27.317,27.317,0,0,1-21.667-12.195,32.63,32.63,0,0,0-3.561-4.328A23.8,23.8,0,0,0-4002.9,33h-206.2a23.8,23.8,0,0,0-13.969,5.451,32.648,32.648,0,0,0-3.562,4.329A27.339,27.339,0,0,1-4249.5,55,27.5,27.5,0,0,1-4277,27.5,27.5,27.5,0,0,1-4249.5,0a27.426,27.426,0,0,1,23.815,13.819c4.571,4.21,9.112,7.385,16.78,8.166h35.9V22h134v-.015h35.9c7.2-.734,11.64-3.575,15.939-7.4a24.52,24.52,0,0,0,1.791-2.363A27.315,27.315,0,0,1-3963.832.031h0c.046,0,.09,0,.136-.006h.021l.121,0h.021l.137,0h.017c.04,0,.077,0,.117,0h.04l.1,0h.033l.134,0h.016l.119,0h.313A27.5,27.5,0,0,1-3935,27.5,27.5,27.5,0,0,1-3962.5,55Z" transform="translate(5473 855)" fill="#34b5ac"/>
  </g>
</svg>
