<svg xmlns="http://www.w3.org/2000/svg" width="19" height="18" viewBox="0 0 19 18">
  <g id="Page-1" transform="translate(0 0)">
    <g id="Dribbble-Light-Preview" transform="translate(0 0)">
      <g id="icons">
        <path id="star_favorite-_1499_" data-name="star_favorite-[#1499]" d="M58.884,170.985a1.684,1.684,0,0,0-.495,1.5L59,176.012a1.709,1.709,0,0,1-1.7,1.988,1.733,1.733,0,0,1-.8-.2L53.3,176.137a1.743,1.743,0,0,0-1.6,0L48.493,177.8a1.733,1.733,0,0,1-.8.2A1.708,1.708,0,0,1,46,176.012l.613-3.524a1.684,1.684,0,0,0-.495-1.5l-2.594-2.5a1.692,1.692,0,0,1,.953-2.9l3.586-.514a1.716,1.716,0,0,0,1.294-.929l1.6-3.206a1.732,1.732,0,0,1,3.086,0l1.6,3.206a1.716,1.716,0,0,0,1.295.929l3.586.514a1.692,1.692,0,0,1,.953,2.9l-2.595,2.5Z" transform="translate(-43 -160)" fill="#2b2a2a"/>
      </g>
    </g>
  </g>
</svg>
