<svg xmlns="http://www.w3.org/2000/svg" width="60.267" height="60.267" viewBox="0 0 60.267 60.267">
  <g id="Group_70" data-name="Group 70" transform="translate(-1 -1)">
    <path id="Path_1160" data-name="Path 1160" d="M61.267,9.574H1L9.618,1H52.649Z" transform="translate(0 0)" fill="#474747"/>
    <path id="Path_1161" data-name="Path 1161" d="M43.829,47.99,1,5.29H13.231l30.6,30.5Z" transform="translate(0 4.284)" fill="#2b2a2a"/>
    <path id="Path_1162" data-name="Path 1162" d="M9.57,47.99,52.4,5.29H40.168L9.57,35.79Z" transform="translate(8.868 4.284)" fill="#2b2a2a"/>
    <ellipse id="Ellipse_139" data-name="Ellipse 139" cx="18.184" cy="18.029" rx="18.184" ry="18.029" transform="translate(12.881 24.929)" fill="#f4c95a"/>
    <path id="Path_1163" data-name="Path 1163" d="M36.68,15.89a17.787,17.787,0,0,1,2.938,9.833A17.987,17.987,0,0,1,8.48,37.954,17.987,17.987,0,1,0,36.68,15.97Z" transform="translate(7.643 14.76)" fill="#edaf4b"/>
    <circle id="Ellipse_140" data-name="Ellipse 140" cx="12.019" cy="12.019" r="12.019" transform="translate(19.045 30.939)" fill="#fff27d"/>
    <path id="Path_1164" data-name="Path 1164" d="M28.674,17.39a12.118,12.118,0,0,1-2.065,15.652,11.991,11.991,0,0,1-15.691.28,11.991,11.991,0,0,0,11.9,5.235,12.2,12.2,0,0,0,9.763-8.772,11.991,11.991,0,0,0-3.93-12.4Z" transform="translate(10.142 16.258)" fill="#f1e68a"/>
  </g>
</svg>
